<svg id="Capa_1" enable-background="new 0 0 512 512" height="512" viewBox="0 0 512 512" width="512" xmlns="http://www.w3.org/2000/svg"><g><path d="m497 0h-482c-8.284 0-15 6.716-15 15v482c0 8.284 6.716 15 15 15h482c8.284 0 15-6.716 15-15v-482c0-8.284-6.716-15-15-15z" fill="#edf5ff"/><g><path d="m497 0h-241v512h241c8.284 0 15-6.716 15-15v-482c0-8.284-6.716-15-15-15z" fill="#d7e9ff"/></g><path d="m409.625 60.004h-60.25c-8.284 0-15 6.716-15 15v237.955l-122.332-244.663c-2.54-5.082-7.734-8.292-13.416-8.292h-96.252c-8.284 0-15 6.716-15 15v361.992c0 8.284 6.716 15 15 15h60.25c8.284 0 15-6.716 15-15v-237.955l122.332 244.663c2.54 5.082 7.734 8.292 13.416 8.292h96.252c8.284 0 15-6.716 15-15v-361.992c0-8.284-6.716-15-15-15z" fill="#ff8659"/><path d="m409.625 60.004h-60.25c-8.284 0-15 6.716-15 15v237.955l-78.375-156.749v199.58l43.957 87.914c2.54 5.082 7.734 8.292 13.416 8.292h96.252c8.284 0 15-6.716 15-15v-361.992c0-8.284-6.716-15-15-15z" fill="#ff415b"/></g></svg>